<svg width="98" height="19" viewBox="0 0 98 19" fill="none" xmlns="http://www.w3.org/2000/svg">
<path d="M1.5 14.3138C2.35092 14.1141 3.20192 13.6469 3.99312 13.3111C9.27966 11.0678 14.5813 8.8952 20.0878 7.23512C27.3854 5.03506 34.913 3.43444 42.5159 2.78338C47.5919 2.34871 53.0603 2.00095 58.118 2.83352C60.1331 3.16523 65.4129 4.53666 65.718 7.27522C66.01 9.89628 63.3015 11.9409 61.5762 13.4816C59.8803 14.996 58.0929 16.6755 55.8661 17.3418C53.4482 18.0652 53.6923 16.1606 55.082 14.6146C58.3499 10.9792 63.3241 8.68148 67.7286 6.80398C73.2781 4.43838 79.0682 2.74485 85.0598 1.98127C88.8623 1.49667 92.6764 1.5 96.5 1.5" stroke="#C3BA7A" stroke-width="3" stroke-linecap="round"/>
</svg>
