<svg width="90" height="90" viewBox="0 0 90 90" fill="none" xmlns="http://www.w3.org/2000/svg">
<mask id="mask0_419_30929" style="mask-type:alpha" maskUnits="userSpaceOnUse" x="0" y="0" width="90" height="90">
<path d="M38.4938 2.39619C42.2429 -0.798791 47.7571 -0.798795 51.5062 2.39619L57.269 7.30721C58.8756 8.67634 60.8732 9.50375 62.9773 9.67166L70.5248 10.274C75.4351 10.6658 79.3342 14.5649 79.726 19.4751L80.3283 27.0227C80.4962 29.1268 81.3237 31.1244 82.6928 32.731L87.6038 38.4938C90.7988 42.2429 90.7988 47.7571 87.6038 51.5062L82.6928 57.269C81.3237 58.8756 80.4962 60.8732 80.3283 62.9773L79.726 70.5248C79.3342 75.4351 75.4351 79.3342 70.5249 79.726L62.9773 80.3283C60.8732 80.4962 58.8756 81.3237 57.269 82.6928L51.5062 87.6038C47.7571 90.7988 42.2429 90.7988 38.4938 87.6038L32.731 82.6928C31.1244 81.3237 29.1268 80.4962 27.0227 80.3283L19.4752 79.726C14.5649 79.3342 10.6658 75.4351 10.274 70.5249L9.67166 62.9773C9.50375 60.8732 8.67634 58.8756 7.30722 57.269L2.39619 51.5062C-0.798791 47.7571 -0.798795 42.2429 2.39619 38.4938L7.30721 32.731C8.67634 31.1244 9.50375 29.1268 9.67166 27.0227L10.274 19.4752C10.6658 14.5649 14.5649 10.6658 19.4751 10.274L27.0227 9.67166C29.1268 9.50375 31.1244 8.67634 32.731 7.30722L38.4938 2.39619Z" fill="white"/>
</mask>
<g mask="url(#mask0_419_30929)">
<rect width="96" height="96" transform="translate(-3.14837 -3.14837) scale(1.00309)" fill="white"/>
<path d="M24.9582 34.7153C25.2151 31.4888 27.9149 28.9505 31.2075 28.9505H58.7925C62.1125 28.9505 64.8298 31.5313 65.0477 34.7961L45.0023 45.3507L24.9582 34.7153ZM24.9382 37.5435V54.7801C24.9382 58.2426 27.745 61.0495 31.2075 61.0495H58.7925C62.255 61.0495 65.0618 58.2426 65.0618 54.7801V37.6228L45.5842 47.8785C45.2173 48.0716 44.7786 48.0709 44.4123 47.8766L24.9382 37.5435Z" fill="#242424"/>
</g>
</svg>
